# xmcd CD database file
#
# Track frame offsets:
#	150
#	12540
#	31957
#	47175
#	69435
#
# Disc length: 1233 seconds
#
# Revision: 0
# Processed by: cddbd v1.5.1PL2 Copyright (c) Steve Scherf et al.
# Submitted via: CDex 1.51
#
DISCID=3d04cf05
DTITLE=THE MODS - GANG ROCKER
DYEAR=1900
DGENRE=ロック (日本)
TTITLE0=GANG ROCKER
TTITLE1=BLUE RESISTANCE
TTITLE2=UNIFORM
TTITLE3=DO THE MONKEY
TTITLE4=TOMORROW NEVER COMES
EXTD=
EXTT0=
EXTT1=
EXTT2=
EXTT3=
EXTT4=
PLAYORDER=
